<?xml version="1.0" encoding="utf-8" standalone="no"?>
<!DOCTYPE svg PUBLIC "-//W3C//DTD SVG 1.1//EN"
  "http://www.w3.org/Graphics/SVG/1.1/DTD/svg11.dtd">
<svg xmlns:xlink="http://www.w3.org/1999/xlink" width="864pt" height="648pt" viewBox="0 0 864 648" xmlns="http://www.w3.org/2000/svg" version="1.1">
 <title>MPTUNNEL QUIC · service after loss clears</title>
 <metadata>
  <rdf:RDF xmlns:dc="http://purl.org/dc/elements/1.1/" xmlns:cc="http://creativecommons.org/ns#" xmlns:rdf="http://www.w3.org/1999/02/22-rdf-syntax-ns#">
   <cc:Work>
    <dc:type rdf:resource="http://purl.org/dc/dcmitype/StillImage"/>
    <dc:title>MPTUNNEL QUIC · service after loss clears</dc:title>
    <dc:description>Actual measurement series and conditions are in measurements.json.</dc:description>
    <dc:format>image/svg+xml</dc:format>
    <dc:creator>
     <cc:Agent>
      <dc:title>MPTUNNEL</dc:title>
     </cc:Agent>
    </dc:creator>
   </cc:Work>
  </rdf:RDF>
 </metadata>
 <defs>
  <style type="text/css">*{stroke-linejoin: round; stroke-linecap: butt}</style>
 </defs>
 <g id="figure_1">
  <g id="patch_1">
   <path d="M 0 648 
L 864 648 
L 864 0 
L 0 0 
z
" style="fill: #ffffff"/>
  </g>
  <g id="axes_1">
   <g id="patch_2">
    <path d="M 108 268.369811 
L 777.6 268.369811 
L 777.6 97.2 
L 108 97.2 
z
" style="fill: #ffffff"/>
   </g>
   <g id="patch_3">
    <path d="M 108 268.369811 
L 442.8 268.369811 
L 442.8 97.2 
L 108 97.2 
z
" clip-path="url(#p9019f160bc)" style="fill: #e69f00; opacity: 0.13; stroke: #e69f00; stroke-linejoin: miter"/>
   </g>
   <g id="matplotlib.axis_1">
    <g id="xtick_1">
     <g id="line2d_1">
      <path d="M 108 268.369811 
L 108 97.2 
" clip-path="url(#p9019f160bc)" style="fill: none; stroke: #b0b0b0; stroke-opacity: 0.22; stroke-width: 0.6; stroke-linecap: square"/>
     </g>
     <g id="line2d_2">
      <defs>
       <path id="mc6664ad019" d="M 0 0 
L 0 3.5 
" style="stroke: #000000; stroke-width: 0.8"/>
      </defs>
      <g>
       <use xlink:href="#mc6664ad019" x="108" y="268.369811" style="stroke: #000000; stroke-width: 0.8"/>
      </g>
     </g>
     <g id="text_1">
      <text style="font-size: 9px; font-family: 'DejaVu Sans'; text-anchor: middle" x="108" y="282.208405" transform="rotate(-0 108 282.208405)">0</text>
     </g>
    </g>
    <g id="xtick_2">
     <g id="line2d_3">
      <path d="M 191.7 268.369811 
L 191.7 97.2 
" clip-path="url(#p9019f160bc)" style="fill: none; stroke: #b0b0b0; stroke-opacity: 0.22; stroke-width: 0.6; stroke-linecap: square"/>
     </g>
     <g id="line2d_4">
      <g>
       <use xlink:href="#mc6664ad019" x="191.7" y="268.369811" style="stroke: #000000; stroke-width: 0.8"/>
      </g>
     </g>
     <g id="text_2">
      <text style="font-size: 9px; font-family: 'DejaVu Sans'; text-anchor: middle" x="191.7" y="282.208405" transform="rotate(-0 191.7 282.208405)">5</text>
     </g>
    </g>
    <g id="xtick_3">
     <g id="line2d_5">
      <path d="M 275.4 268.369811 
L 275.4 97.2 
" clip-path="url(#p9019f160bc)" style="fill: none; stroke: #b0b0b0; stroke-opacity: 0.22; stroke-width: 0.6; stroke-linecap: square"/>
     </g>
     <g id="line2d_6">
      <g>
       <use xlink:href="#mc6664ad019" x="275.4" y="268.369811" style="stroke: #000000; stroke-width: 0.8"/>
      </g>
     </g>
     <g id="text_3">
      <text style="font-size: 9px; font-family: 'DejaVu Sans'; text-anchor: middle" x="275.4" y="282.208405" transform="rotate(-0 275.4 282.208405)">10</text>
     </g>
    </g>
    <g id="xtick_4">
     <g id="line2d_7">
      <path d="M 359.1 268.369811 
L 359.1 97.2 
" clip-path="url(#p9019f160bc)" style="fill: none; stroke: #b0b0b0; stroke-opacity: 0.22; stroke-width: 0.6; stroke-linecap: square"/>
     </g>
     <g id="line2d_8">
      <g>
       <use xlink:href="#mc6664ad019" x="359.1" y="268.369811" style="stroke: #000000; stroke-width: 0.8"/>
      </g>
     </g>
     <g id="text_4">
      <text style="font-size: 9px; font-family: 'DejaVu Sans'; text-anchor: middle" x="359.1" y="282.208405" transform="rotate(-0 359.1 282.208405)">15</text>
     </g>
    </g>
    <g id="xtick_5">
     <g id="line2d_9">
      <path d="M 442.8 268.369811 
L 442.8 97.2 
" clip-path="url(#p9019f160bc)" style="fill: none; stroke: #b0b0b0; stroke-opacity: 0.22; stroke-width: 0.6; stroke-linecap: square"/>
     </g>
     <g id="line2d_10">
      <g>
       <use xlink:href="#mc6664ad019" x="442.8" y="268.369811" style="stroke: #000000; stroke-width: 0.8"/>
      </g>
     </g>
     <g id="text_5">
      <text style="font-size: 9px; font-family: 'DejaVu Sans'; text-anchor: middle" x="442.8" y="282.208405" transform="rotate(-0 442.8 282.208405)">20</text>
     </g>
    </g>
    <g id="xtick_6">
     <g id="line2d_11">
      <path d="M 526.5 268.369811 
L 526.5 97.2 
" clip-path="url(#p9019f160bc)" style="fill: none; stroke: #b0b0b0; stroke-opacity: 0.22; stroke-width: 0.6; stroke-linecap: square"/>
     </g>
     <g id="line2d_12">
      <g>
       <use xlink:href="#mc6664ad019" x="526.5" y="268.369811" style="stroke: #000000; stroke-width: 0.8"/>
      </g>
     </g>
     <g id="text_6">
      <text style="font-size: 9px; font-family: 'DejaVu Sans'; text-anchor: middle" x="526.5" y="282.208405" transform="rotate(-0 526.5 282.208405)">25</text>
     </g>
    </g>
    <g id="xtick_7">
     <g id="line2d_13">
      <path d="M 610.2 268.369811 
L 610.2 97.2 
" clip-path="url(#p9019f160bc)" style="fill: none; stroke: #b0b0b0; stroke-opacity: 0.22; stroke-width: 0.6; stroke-linecap: square"/>
     </g>
     <g id="line2d_14">
      <g>
       <use xlink:href="#mc6664ad019" x="610.2" y="268.369811" style="stroke: #000000; stroke-width: 0.8"/>
      </g>
     </g>
     <g id="text_7">
      <text style="font-size: 9px; font-family: 'DejaVu Sans'; text-anchor: middle" x="610.2" y="282.208405" transform="rotate(-0 610.2 282.208405)">30</text>
     </g>
    </g>
    <g id="xtick_8">
     <g id="line2d_15">
      <path d="M 693.9 268.369811 
L 693.9 97.2 
" clip-path="url(#p9019f160bc)" style="fill: none; stroke: #b0b0b0; stroke-opacity: 0.22; stroke-width: 0.6; stroke-linecap: square"/>
     </g>
     <g id="line2d_16">
      <g>
       <use xlink:href="#mc6664ad019" x="693.9" y="268.369811" style="stroke: #000000; stroke-width: 0.8"/>
      </g>
     </g>
     <g id="text_8">
      <text style="font-size: 9px; font-family: 'DejaVu Sans'; text-anchor: middle" x="693.9" y="282.208405" transform="rotate(-0 693.9 282.208405)">35</text>
     </g>
    </g>
    <g id="xtick_9">
     <g id="line2d_17">
      <path d="M 777.6 268.369811 
L 777.6 97.2 
" clip-path="url(#p9019f160bc)" style="fill: none; stroke: #b0b0b0; stroke-opacity: 0.22; stroke-width: 0.6; stroke-linecap: square"/>
     </g>
     <g id="line2d_18">
      <g>
       <use xlink:href="#mc6664ad019" x="777.6" y="268.369811" style="stroke: #000000; stroke-width: 0.8"/>
      </g>
     </g>
     <g id="text_9">
      <text style="font-size: 9px; font-family: 'DejaVu Sans'; text-anchor: middle" x="777.6" y="282.208405" transform="rotate(-0 777.6 282.208405)">40</text>
     </g>
    </g>
    <g id="text_10">
     <text style="font-size: 9px; font-family: 'DejaVu Sans'; text-anchor: middle" x="442.8" y="294.918718" transform="rotate(-0 442.8 294.918718)">Seconds since probe start</text>
    </g>
   </g>
   <g id="matplotlib.axis_2">
    <g id="ytick_1">
     <g id="line2d_19">
      <path d="M 108 268.369811 
L 777.6 268.369811 
" clip-path="url(#p9019f160bc)" style="fill: none; stroke: #b0b0b0; stroke-opacity: 0.22; stroke-width: 0.6; stroke-linecap: square"/>
     </g>
     <g id="line2d_20">
      <defs>
       <path id="madf82dfdd2" d="M 0 0 
L -3.5 0 
" style="stroke: #000000; stroke-width: 0.8"/>
      </defs>
      <g>
       <use xlink:href="#madf82dfdd2" x="108" y="268.369811" style="stroke: #000000; stroke-width: 0.8"/>
      </g>
     </g>
     <g id="text_11">
      <text style="font-size: 9px; font-family: 'DejaVu Sans'; text-anchor: end" x="101" y="271.789108" transform="rotate(-0 101 271.789108)">0</text>
     </g>
    </g>
    <g id="ytick_2">
     <g id="line2d_21">
      <path d="M 108 243.410842 
L 777.6 243.410842 
" clip-path="url(#p9019f160bc)" style="fill: none; stroke: #b0b0b0; stroke-opacity: 0.22; stroke-width: 0.6; stroke-linecap: square"/>
     </g>
     <g id="line2d_22">
      <g>
       <use xlink:href="#madf82dfdd2" x="108" y="243.410842" style="stroke: #000000; stroke-width: 0.8"/>
      </g>
     </g>
     <g id="text_12">
      <text style="font-size: 9px; font-family: 'DejaVu Sans'; text-anchor: end" x="101" y="246.830139" transform="rotate(-0 101 246.830139)">100</text>
     </g>
    </g>
    <g id="ytick_3">
     <g id="line2d_23">
      <path d="M 108 218.451872 
L 777.6 218.451872 
" clip-path="url(#p9019f160bc)" style="fill: none; stroke: #b0b0b0; stroke-opacity: 0.22; stroke-width: 0.6; stroke-linecap: square"/>
     </g>
     <g id="line2d_24">
      <g>
       <use xlink:href="#madf82dfdd2" x="108" y="218.451872" style="stroke: #000000; stroke-width: 0.8"/>
      </g>
     </g>
     <g id="text_13">
      <text style="font-size: 9px; font-family: 'DejaVu Sans'; text-anchor: end" x="101" y="221.871169" transform="rotate(-0 101 221.871169)">200</text>
     </g>
    </g>
    <g id="ytick_4">
     <g id="line2d_25">
      <path d="M 108 193.492903 
L 777.6 193.492903 
" clip-path="url(#p9019f160bc)" style="fill: none; stroke: #b0b0b0; stroke-opacity: 0.22; stroke-width: 0.6; stroke-linecap: square"/>
     </g>
     <g id="line2d_26">
      <g>
       <use xlink:href="#madf82dfdd2" x="108" y="193.492903" style="stroke: #000000; stroke-width: 0.8"/>
      </g>
     </g>
     <g id="text_14">
      <text style="font-size: 9px; font-family: 'DejaVu Sans'; text-anchor: end" x="101" y="196.912199" transform="rotate(-0 101 196.912199)">300</text>
     </g>
    </g>
    <g id="ytick_5">
     <g id="line2d_27">
      <path d="M 108 168.533933 
L 777.6 168.533933 
" clip-path="url(#p9019f160bc)" style="fill: none; stroke: #b0b0b0; stroke-opacity: 0.22; stroke-width: 0.6; stroke-linecap: square"/>
     </g>
     <g id="line2d_28">
      <g>
       <use xlink:href="#madf82dfdd2" x="108" y="168.533933" style="stroke: #000000; stroke-width: 0.8"/>
      </g>
     </g>
     <g id="text_15">
      <text style="font-size: 9px; font-family: 'DejaVu Sans'; text-anchor: end" x="101" y="171.95323" transform="rotate(-0 101 171.95323)">400</text>
     </g>
    </g>
    <g id="ytick_6">
     <g id="line2d_29">
      <path d="M 108 143.574963 
L 777.6 143.574963 
" clip-path="url(#p9019f160bc)" style="fill: none; stroke: #b0b0b0; stroke-opacity: 0.22; stroke-width: 0.6; stroke-linecap: square"/>
     </g>
     <g id="line2d_30">
      <g>
       <use xlink:href="#madf82dfdd2" x="108" y="143.574963" style="stroke: #000000; stroke-width: 0.8"/>
      </g>
     </g>
     <g id="text_16">
      <text style="font-size: 9px; font-family: 'DejaVu Sans'; text-anchor: end" x="101" y="146.99426" transform="rotate(-0 101 146.99426)">500</text>
     </g>
    </g>
    <g id="ytick_7">
     <g id="line2d_31">
      <path d="M 108 118.615994 
L 777.6 118.615994 
" clip-path="url(#p9019f160bc)" style="fill: none; stroke: #b0b0b0; stroke-opacity: 0.22; stroke-width: 0.6; stroke-linecap: square"/>
     </g>
     <g id="line2d_32">
      <g>
       <use xlink:href="#madf82dfdd2" x="108" y="118.615994" style="stroke: #000000; stroke-width: 0.8"/>
      </g>
     </g>
     <g id="text_17">
      <text style="font-size: 9px; font-family: 'DejaVu Sans'; text-anchor: end" x="101" y="122.035291" transform="rotate(-0 101 122.035291)">600</text>
     </g>
    </g>
    <g id="text_18">
     <text style="font-size: 9px; font-family: 'DejaVu Sans'; text-anchor: middle" x="77.949531" y="182.784906" transform="rotate(-90 77.949531 182.784906)">Receiver goodput (Mbps)</text>
    </g>
   </g>
   <g id="patch_4">
    <path d="M 108 268.031368 
L 108 268.031368 
L 124.74 268.031368 
L 124.74 255.623016 
L 141.48 255.623016 
L 141.48 203.155269 
L 158.22 203.155269 
L 158.22 144.542373 
L 174.96 144.542373 
L 174.96 157.082508 
L 191.7 157.082508 
L 191.7 174.724257 
L 208.44 174.724257 
L 208.44 172.986114 
L 225.18 172.986114 
L 225.18 155.796123 
L 241.92 155.796123 
L 241.92 177.245612 
L 258.66 177.245612 
L 258.66 171.131912 
L 275.4 171.131912 
L 275.4 189.533162 
L 292.14 189.533162 
L 292.14 177.425816 
L 308.88 177.425816 
L 308.88 185.93932 
L 325.62 185.93932 
L 325.62 166.421156 
L 342.36 166.421156 
L 342.36 183.432441 
L 359.1 183.432441 
L 359.1 158.520145 
L 375.84 158.520145 
L 375.84 166.157839 
L 392.58 166.157839 
L 392.58 170.31176 
L 409.32 170.31176 
L 409.32 174.652375 
L 426.06 174.652375 
L 426.06 190.687015 
L 442.8 190.687015 
L 442.8 105.334827 
L 459.54 105.334827 
L 459.54 152.297874 
L 476.28 152.297874 
L 476.28 152.882413 
L 493.02 152.882413 
L 493.02 154.460319 
L 509.76 154.460319 
L 509.76 153.791918 
L 526.5 153.791918 
L 526.5 166.703442 
L 543.24 166.703442 
L 543.24 155.934146 
L 559.98 155.934146 
L 559.98 152.590892 
L 576.72 152.590892 
L 576.72 157.689011 
L 593.46 157.689011 
L 593.46 160.154708 
L 610.2 160.154708 
L 610.2 164.744413 
L 626.94 164.744413 
L 626.94 163.676918 
L 643.68 163.676918 
L 643.68 164.126179 
L 660.42 164.126179 
L 660.42 178.050039 
L 677.16 178.050039 
L 677.16 163.899801 
L 693.9 163.899801 
L 693.9 164.774613 
L 710.64 164.774613 
L 710.64 159.598123 
L 727.38 159.598123 
L 727.38 162.538539 
L 744.12 162.538539 
L 744.12 164.437417 
L 760.86 164.437417 
L 760.86 163.362185 
L 777.6 163.362185 
L 777.6 163.362185 
" clip-path="url(#p9019f160bc)" style="fill: none; stroke: #1767a5; stroke-width: 1.4; stroke-linejoin: miter"/>
   </g>
   <g id="line2d_33">
    <path d="M 442.8 268.369811 
L 442.8 97.2 
" clip-path="url(#p9019f160bc)" style="fill: none; stroke-dasharray: 1,1.65; stroke-dashoffset: 0; stroke: #99701b"/>
   </g>
   <g id="line2d_34">
    <path d="M 777.6 268.369811 
L 777.6 97.2 
" clip-path="url(#p9019f160bc)" style="fill: none; stroke-dasharray: 0.8,1.32; stroke-dashoffset: 0; stroke: #777777; stroke-width: 0.8"/>
   </g>
   <g id="patch_5">
    <path d="M 108 268.369811 
L 108 97.2 
" style="fill: none; stroke: #000000; stroke-width: 0.8; stroke-linejoin: miter; stroke-linecap: square"/>
   </g>
   <g id="patch_6">
    <path d="M 108 268.369811 
L 777.6 268.369811 
" style="fill: none; stroke: #000000; stroke-width: 0.8; stroke-linejoin: miter; stroke-linecap: square"/>
   </g>
   <g id="text_19">
    <text style="font-size: 8px; font-family: 'DejaVu Sans'; text-anchor: start" x="108" y="318.952712" transform="rotate(-0 108 318.952712)">393.7 Mbps · first 0.73 s · max gap 0.44 s</text>
   </g>
   <g id="text_20">
    <text style="font-size: 11px; font-family: 'DejaVu Sans'; text-anchor: start" x="108" y="86.2" transform="rotate(-0 108 86.2)">Download · ordered application delivery</text>
   </g>
  </g>
  <g id="axes_2">
   <g id="patch_7">
    <path d="M 108 550.8 
L 777.6 550.8 
L 777.6 379.630189 
L 108 379.630189 
z
" style="fill: #ffffff"/>
   </g>
   <g id="patch_8">
    <path d="M 108 550.8 
L 442.8 550.8 
L 442.8 379.630189 
L 108 379.630189 
z
" clip-path="url(#p71802d1087)" style="fill: #e69f00; opacity: 0.13; stroke: #e69f00; stroke-linejoin: miter"/>
   </g>
   <g id="matplotlib.axis_3">
    <g id="xtick_10">
     <g id="line2d_35">
      <path d="M 108 550.8 
L 108 379.630189 
" clip-path="url(#p71802d1087)" style="fill: none; stroke: #b0b0b0; stroke-opacity: 0.22; stroke-width: 0.6; stroke-linecap: square"/>
     </g>
     <g id="line2d_36">
      <g>
       <use xlink:href="#mc6664ad019" x="108" y="550.8" style="stroke: #000000; stroke-width: 0.8"/>
      </g>
     </g>
     <g id="text_21">
      <text style="font-size: 9px; font-family: 'DejaVu Sans'; text-anchor: middle" x="108" y="564.638594" transform="rotate(-0 108 564.638594)">0</text>
     </g>
    </g>
    <g id="xtick_11">
     <g id="line2d_37">
      <path d="M 191.7 550.8 
L 191.7 379.630189 
" clip-path="url(#p71802d1087)" style="fill: none; stroke: #b0b0b0; stroke-opacity: 0.22; stroke-width: 0.6; stroke-linecap: square"/>
     </g>
     <g id="line2d_38">
      <g>
       <use xlink:href="#mc6664ad019" x="191.7" y="550.8" style="stroke: #000000; stroke-width: 0.8"/>
      </g>
     </g>
     <g id="text_22">
      <text style="font-size: 9px; font-family: 'DejaVu Sans'; text-anchor: middle" x="191.7" y="564.638594" transform="rotate(-0 191.7 564.638594)">5</text>
     </g>
    </g>
    <g id="xtick_12">
     <g id="line2d_39">
      <path d="M 275.4 550.8 
L 275.4 379.630189 
" clip-path="url(#p71802d1087)" style="fill: none; stroke: #b0b0b0; stroke-opacity: 0.22; stroke-width: 0.6; stroke-linecap: square"/>
     </g>
     <g id="line2d_40">
      <g>
       <use xlink:href="#mc6664ad019" x="275.4" y="550.8" style="stroke: #000000; stroke-width: 0.8"/>
      </g>
     </g>
     <g id="text_23">
      <text style="font-size: 9px; font-family: 'DejaVu Sans'; text-anchor: middle" x="275.4" y="564.638594" transform="rotate(-0 275.4 564.638594)">10</text>
     </g>
    </g>
    <g id="xtick_13">
     <g id="line2d_41">
      <path d="M 359.1 550.8 
L 359.1 379.630189 
" clip-path="url(#p71802d1087)" style="fill: none; stroke: #b0b0b0; stroke-opacity: 0.22; stroke-width: 0.6; stroke-linecap: square"/>
     </g>
     <g id="line2d_42">
      <g>
       <use xlink:href="#mc6664ad019" x="359.1" y="550.8" style="stroke: #000000; stroke-width: 0.8"/>
      </g>
     </g>
     <g id="text_24">
      <text style="font-size: 9px; font-family: 'DejaVu Sans'; text-anchor: middle" x="359.1" y="564.638594" transform="rotate(-0 359.1 564.638594)">15</text>
     </g>
    </g>
    <g id="xtick_14">
     <g id="line2d_43">
      <path d="M 442.8 550.8 
L 442.8 379.630189 
" clip-path="url(#p71802d1087)" style="fill: none; stroke: #b0b0b0; stroke-opacity: 0.22; stroke-width: 0.6; stroke-linecap: square"/>
     </g>
     <g id="line2d_44">
      <g>
       <use xlink:href="#mc6664ad019" x="442.8" y="550.8" style="stroke: #000000; stroke-width: 0.8"/>
      </g>
     </g>
     <g id="text_25">
      <text style="font-size: 9px; font-family: 'DejaVu Sans'; text-anchor: middle" x="442.8" y="564.638594" transform="rotate(-0 442.8 564.638594)">20</text>
     </g>
    </g>
    <g id="xtick_15">
     <g id="line2d_45">
      <path d="M 526.5 550.8 
L 526.5 379.630189 
" clip-path="url(#p71802d1087)" style="fill: none; stroke: #b0b0b0; stroke-opacity: 0.22; stroke-width: 0.6; stroke-linecap: square"/>
     </g>
     <g id="line2d_46">
      <g>
       <use xlink:href="#mc6664ad019" x="526.5" y="550.8" style="stroke: #000000; stroke-width: 0.8"/>
      </g>
     </g>
     <g id="text_26">
      <text style="font-size: 9px; font-family: 'DejaVu Sans'; text-anchor: middle" x="526.5" y="564.638594" transform="rotate(-0 526.5 564.638594)">25</text>
     </g>
    </g>
    <g id="xtick_16">
     <g id="line2d_47">
      <path d="M 610.2 550.8 
L 610.2 379.630189 
" clip-path="url(#p71802d1087)" style="fill: none; stroke: #b0b0b0; stroke-opacity: 0.22; stroke-width: 0.6; stroke-linecap: square"/>
     </g>
     <g id="line2d_48">
      <g>
       <use xlink:href="#mc6664ad019" x="610.2" y="550.8" style="stroke: #000000; stroke-width: 0.8"/>
      </g>
     </g>
     <g id="text_27">
      <text style="font-size: 9px; font-family: 'DejaVu Sans'; text-anchor: middle" x="610.2" y="564.638594" transform="rotate(-0 610.2 564.638594)">30</text>
     </g>
    </g>
    <g id="xtick_17">
     <g id="line2d_49">
      <path d="M 693.9 550.8 
L 693.9 379.630189 
" clip-path="url(#p71802d1087)" style="fill: none; stroke: #b0b0b0; stroke-opacity: 0.22; stroke-width: 0.6; stroke-linecap: square"/>
     </g>
     <g id="line2d_50">
      <g>
       <use xlink:href="#mc6664ad019" x="693.9" y="550.8" style="stroke: #000000; stroke-width: 0.8"/>
      </g>
     </g>
     <g id="text_28">
      <text style="font-size: 9px; font-family: 'DejaVu Sans'; text-anchor: middle" x="693.9" y="564.638594" transform="rotate(-0 693.9 564.638594)">35</text>
     </g>
    </g>
    <g id="xtick_18">
     <g id="line2d_51">
      <path d="M 777.6 550.8 
L 777.6 379.630189 
" clip-path="url(#p71802d1087)" style="fill: none; stroke: #b0b0b0; stroke-opacity: 0.22; stroke-width: 0.6; stroke-linecap: square"/>
     </g>
     <g id="line2d_52">
      <g>
       <use xlink:href="#mc6664ad019" x="777.6" y="550.8" style="stroke: #000000; stroke-width: 0.8"/>
      </g>
     </g>
     <g id="text_29">
      <text style="font-size: 9px; font-family: 'DejaVu Sans'; text-anchor: middle" x="777.6" y="564.638594" transform="rotate(-0 777.6 564.638594)">40</text>
     </g>
    </g>
    <g id="text_30">
     <text style="font-size: 9px; font-family: 'DejaVu Sans'; text-anchor: middle" x="442.8" y="577.348906" transform="rotate(-0 442.8 577.348906)">Seconds since probe start</text>
    </g>
   </g>
   <g id="matplotlib.axis_4">
    <g id="ytick_8">
     <g id="line2d_53">
      <path d="M 108 550.8 
L 777.6 550.8 
" clip-path="url(#p71802d1087)" style="fill: none; stroke: #b0b0b0; stroke-opacity: 0.22; stroke-width: 0.6; stroke-linecap: square"/>
     </g>
     <g id="line2d_54">
      <g>
       <use xlink:href="#madf82dfdd2" x="108" y="550.8" style="stroke: #000000; stroke-width: 0.8"/>
      </g>
     </g>
     <g id="text_31">
      <text style="font-size: 9px; font-family: 'DejaVu Sans'; text-anchor: end" x="101" y="554.219297" transform="rotate(-0 101 554.219297)">0</text>
     </g>
    </g>
    <g id="ytick_9">
     <g id="line2d_55">
      <path d="M 108 514.508293 
L 777.6 514.508293 
" clip-path="url(#p71802d1087)" style="fill: none; stroke: #b0b0b0; stroke-opacity: 0.22; stroke-width: 0.6; stroke-linecap: square"/>
     </g>
     <g id="line2d_56">
      <g>
       <use xlink:href="#madf82dfdd2" x="108" y="514.508293" style="stroke: #000000; stroke-width: 0.8"/>
      </g>
     </g>
     <g id="text_32">
      <text style="font-size: 9px; font-family: 'DejaVu Sans'; text-anchor: end" x="101" y="517.92759" transform="rotate(-0 101 517.92759)">100</text>
     </g>
    </g>
    <g id="ytick_10">
     <g id="line2d_57">
      <path d="M 108 478.216586 
L 777.6 478.216586 
" clip-path="url(#p71802d1087)" style="fill: none; stroke: #b0b0b0; stroke-opacity: 0.22; stroke-width: 0.6; stroke-linecap: square"/>
     </g>
     <g id="line2d_58">
      <g>
       <use xlink:href="#madf82dfdd2" x="108" y="478.216586" style="stroke: #000000; stroke-width: 0.8"/>
      </g>
     </g>
     <g id="text_33">
      <text style="font-size: 9px; font-family: 'DejaVu Sans'; text-anchor: end" x="101" y="481.635883" transform="rotate(-0 101 481.635883)">200</text>
     </g>
    </g>
    <g id="ytick_11">
     <g id="line2d_59">
      <path d="M 108 441.924879 
L 777.6 441.924879 
" clip-path="url(#p71802d1087)" style="fill: none; stroke: #b0b0b0; stroke-opacity: 0.22; stroke-width: 0.6; stroke-linecap: square"/>
     </g>
     <g id="line2d_60">
      <g>
       <use xlink:href="#madf82dfdd2" x="108" y="441.924879" style="stroke: #000000; stroke-width: 0.8"/>
      </g>
     </g>
     <g id="text_34">
      <text style="font-size: 9px; font-family: 'DejaVu Sans'; text-anchor: end" x="101" y="445.344175" transform="rotate(-0 101 445.344175)">300</text>
     </g>
    </g>
    <g id="ytick_12">
     <g id="line2d_61">
      <path d="M 108 405.633171 
L 777.6 405.633171 
" clip-path="url(#p71802d1087)" style="fill: none; stroke: #b0b0b0; stroke-opacity: 0.22; stroke-width: 0.6; stroke-linecap: square"/>
     </g>
     <g id="line2d_62">
      <g>
       <use xlink:href="#madf82dfdd2" x="108" y="405.633171" style="stroke: #000000; stroke-width: 0.8"/>
      </g>
     </g>
     <g id="text_35">
      <text style="font-size: 9px; font-family: 'DejaVu Sans'; text-anchor: end" x="101" y="409.052468" transform="rotate(-0 101 409.052468)">400</text>
     </g>
    </g>
    <g id="text_36">
     <text style="font-size: 9px; font-family: 'DejaVu Sans'; text-anchor: middle" x="77.949531" y="465.215094" transform="rotate(-90 77.949531 465.215094)">Echo latency (ms)</text>
    </g>
   </g>
   <g id="line2d_63">
    <path d="M 109.737807 472.78938 
L 116.379043 432.636553 
L 124.750571 458.674505 
L 133.12197 475.184949 
L 141.493421 446.778919 
L 149.864749 386.018725 
L 158.236105 421.053557 
L 166.607598 495.261979 
L 174.979329 513.533634 
L 183.350896 511.92894 
L 191.722464 437.547709 
L 200.094074 510.732746 
L 208.46551 391.435234 
L 216.836915 482.491329 
L 225.208134 513.017995 
L 233.579637 470.991248 
L 241.951325 510.807243 
L 250.323738 453.808173 
L 258.694941 466.002326 
L 267.06638 469.97126 
L 275.43788 479.485583 
L 283.809624 470.407112 
L 292.180901 513.234793 
L 300.552537 469.622491 
L 308.92406 423.956589 
L 317.295322 462.137834 
L 325.667205 509.454551 
L 334.038563 451.658312 
L 342.40992 494.975694 
L 350.781476 491.102528 
L 359.152971 501.933609 
L 367.524985 466.633999 
L 375.896523 509.561068 
L 384.269548 456.08023 
L 392.642971 441.051932 
L 401.014472 496.923765 
L 409.386013 415.877477 
L 417.757918 513.744287 
L 426.129315 443.391592 
L 434.501015 439.802036 
L 442.88318 496.323627 
L 451.253762 501.051636 
L 459.625466 488.62254 
L 468.027697 491.11581 
L 476.398969 500.565011 
L 484.770449 496.157501 
L 493.141331 513.197567 
L 501.512215 505.015942 
L 509.885204 505.772984 
L 518.256368 503.065417 
L 526.628138 513.087232 
L 534.99942 508.855321 
L 543.37066 505.888501 
L 551.742309 506.94079 
L 560.113361 507.741013 
L 568.487312 505.798814 
L 576.882664 497.837535 
L 585.254006 513.390303 
L 593.628899 512.151492 
L 602.00044 513.337713 
L 610.371688 512.12502 
L 618.742888 512.759625 
L 627.114437 510.495545 
L 635.485599 512.599157 
L 643.857167 512.053301 
L 652.228394 513.219466 
L 660.640053 511.773751 
L 669.010762 513.650672 
L 677.38191 513.786233 
L 685.753128 513.273167 
L 694.124371 512.66085 
L 702.495543 513.261648 
L 710.866413 512.687172 
L 719.237441 513.789445 
L 727.608627 508.920933 
L 735.980061 512.588512 
L 744.351268 508.932869 
L 752.723713 512.179346 
L 761.09965 512.108744 
L 769.470748 513.73974 
" clip-path="url(#p71802d1087)" style="fill: none; stroke: #1767a5; stroke-linecap: square"/>
    <defs>
     <path id="mda199a935f" d="M 0 0.75 
C 0.198902 0.75 0.389685 0.670975 0.53033 0.53033 
C 0.670975 0.389685 0.75 0.198902 0.75 0 
C 0.75 -0.198902 0.670975 -0.389685 0.53033 -0.53033 
C 0.389685 -0.670975 0.198902 -0.75 0 -0.75 
C -0.198902 -0.75 -0.389685 -0.670975 -0.53033 -0.53033 
C -0.670975 -0.389685 -0.75 -0.198902 -0.75 0 
C -0.75 0.198902 -0.670975 0.389685 -0.53033 0.53033 
C -0.389685 0.670975 -0.198902 0.75 0 0.75 
z
" style="stroke: #1767a5"/>
    </defs>
    <g clip-path="url(#p71802d1087)">
     <use xlink:href="#mda199a935f" x="109.737807" y="472.78938" style="fill: #1767a5; stroke: #1767a5"/>
     <use xlink:href="#mda199a935f" x="116.379043" y="432.636553" style="fill: #1767a5; stroke: #1767a5"/>
     <use xlink:href="#mda199a935f" x="124.750571" y="458.674505" style="fill: #1767a5; stroke: #1767a5"/>
     <use xlink:href="#mda199a935f" x="133.12197" y="475.184949" style="fill: #1767a5; stroke: #1767a5"/>
     <use xlink:href="#mda199a935f" x="141.493421" y="446.778919" style="fill: #1767a5; stroke: #1767a5"/>
     <use xlink:href="#mda199a935f" x="149.864749" y="386.018725" style="fill: #1767a5; stroke: #1767a5"/>
     <use xlink:href="#mda199a935f" x="158.236105" y="421.053557" style="fill: #1767a5; stroke: #1767a5"/>
     <use xlink:href="#mda199a935f" x="166.607598" y="495.261979" style="fill: #1767a5; stroke: #1767a5"/>
     <use xlink:href="#mda199a935f" x="174.979329" y="513.533634" style="fill: #1767a5; stroke: #1767a5"/>
     <use xlink:href="#mda199a935f" x="183.350896" y="511.92894" style="fill: #1767a5; stroke: #1767a5"/>
     <use xlink:href="#mda199a935f" x="191.722464" y="437.547709" style="fill: #1767a5; stroke: #1767a5"/>
     <use xlink:href="#mda199a935f" x="200.094074" y="510.732746" style="fill: #1767a5; stroke: #1767a5"/>
     <use xlink:href="#mda199a935f" x="208.46551" y="391.435234" style="fill: #1767a5; stroke: #1767a5"/>
     <use xlink:href="#mda199a935f" x="216.836915" y="482.491329" style="fill: #1767a5; stroke: #1767a5"/>
     <use xlink:href="#mda199a935f" x="225.208134" y="513.017995" style="fill: #1767a5; stroke: #1767a5"/>
     <use xlink:href="#mda199a935f" x="233.579637" y="470.991248" style="fill: #1767a5; stroke: #1767a5"/>
     <use xlink:href="#mda199a935f" x="241.951325" y="510.807243" style="fill: #1767a5; stroke: #1767a5"/>
     <use xlink:href="#mda199a935f" x="250.323738" y="453.808173" style="fill: #1767a5; stroke: #1767a5"/>
     <use xlink:href="#mda199a935f" x="258.694941" y="466.002326" style="fill: #1767a5; stroke: #1767a5"/>
     <use xlink:href="#mda199a935f" x="267.06638" y="469.97126" style="fill: #1767a5; stroke: #1767a5"/>
     <use xlink:href="#mda199a935f" x="275.43788" y="479.485583" style="fill: #1767a5; stroke: #1767a5"/>
     <use xlink:href="#mda199a935f" x="283.809624" y="470.407112" style="fill: #1767a5; stroke: #1767a5"/>
     <use xlink:href="#mda199a935f" x="292.180901" y="513.234793" style="fill: #1767a5; stroke: #1767a5"/>
     <use xlink:href="#mda199a935f" x="300.552537" y="469.622491" style="fill: #1767a5; stroke: #1767a5"/>
     <use xlink:href="#mda199a935f" x="308.92406" y="423.956589" style="fill: #1767a5; stroke: #1767a5"/>
     <use xlink:href="#mda199a935f" x="317.295322" y="462.137834" style="fill: #1767a5; stroke: #1767a5"/>
     <use xlink:href="#mda199a935f" x="325.667205" y="509.454551" style="fill: #1767a5; stroke: #1767a5"/>
     <use xlink:href="#mda199a935f" x="334.038563" y="451.658312" style="fill: #1767a5; stroke: #1767a5"/>
     <use xlink:href="#mda199a935f" x="342.40992" y="494.975694" style="fill: #1767a5; stroke: #1767a5"/>
     <use xlink:href="#mda199a935f" x="350.781476" y="491.102528" style="fill: #1767a5; stroke: #1767a5"/>
     <use xlink:href="#mda199a935f" x="359.152971" y="501.933609" style="fill: #1767a5; stroke: #1767a5"/>
     <use xlink:href="#mda199a935f" x="367.524985" y="466.633999" style="fill: #1767a5; stroke: #1767a5"/>
     <use xlink:href="#mda199a935f" x="375.896523" y="509.561068" style="fill: #1767a5; stroke: #1767a5"/>
     <use xlink:href="#mda199a935f" x="384.269548" y="456.08023" style="fill: #1767a5; stroke: #1767a5"/>
     <use xlink:href="#mda199a935f" x="392.642971" y="441.051932" style="fill: #1767a5; stroke: #1767a5"/>
     <use xlink:href="#mda199a935f" x="401.014472" y="496.923765" style="fill: #1767a5; stroke: #1767a5"/>
     <use xlink:href="#mda199a935f" x="409.386013" y="415.877477" style="fill: #1767a5; stroke: #1767a5"/>
     <use xlink:href="#mda199a935f" x="417.757918" y="513.744287" style="fill: #1767a5; stroke: #1767a5"/>
     <use xlink:href="#mda199a935f" x="426.129315" y="443.391592" style="fill: #1767a5; stroke: #1767a5"/>
     <use xlink:href="#mda199a935f" x="434.501015" y="439.802036" style="fill: #1767a5; stroke: #1767a5"/>
     <use xlink:href="#mda199a935f" x="442.88318" y="496.323627" style="fill: #1767a5; stroke: #1767a5"/>
     <use xlink:href="#mda199a935f" x="451.253762" y="501.051636" style="fill: #1767a5; stroke: #1767a5"/>
     <use xlink:href="#mda199a935f" x="459.625466" y="488.62254" style="fill: #1767a5; stroke: #1767a5"/>
     <use xlink:href="#mda199a935f" x="468.027697" y="491.11581" style="fill: #1767a5; stroke: #1767a5"/>
     <use xlink:href="#mda199a935f" x="476.398969" y="500.565011" style="fill: #1767a5; stroke: #1767a5"/>
     <use xlink:href="#mda199a935f" x="484.770449" y="496.157501" style="fill: #1767a5; stroke: #1767a5"/>
     <use xlink:href="#mda199a935f" x="493.141331" y="513.197567" style="fill: #1767a5; stroke: #1767a5"/>
     <use xlink:href="#mda199a935f" x="501.512215" y="505.015942" style="fill: #1767a5; stroke: #1767a5"/>
     <use xlink:href="#mda199a935f" x="509.885204" y="505.772984" style="fill: #1767a5; stroke: #1767a5"/>
     <use xlink:href="#mda199a935f" x="518.256368" y="503.065417" style="fill: #1767a5; stroke: #1767a5"/>
     <use xlink:href="#mda199a935f" x="526.628138" y="513.087232" style="fill: #1767a5; stroke: #1767a5"/>
     <use xlink:href="#mda199a935f" x="534.99942" y="508.855321" style="fill: #1767a5; stroke: #1767a5"/>
     <use xlink:href="#mda199a935f" x="543.37066" y="505.888501" style="fill: #1767a5; stroke: #1767a5"/>
     <use xlink:href="#mda199a935f" x="551.742309" y="506.94079" style="fill: #1767a5; stroke: #1767a5"/>
     <use xlink:href="#mda199a935f" x="560.113361" y="507.741013" style="fill: #1767a5; stroke: #1767a5"/>
     <use xlink:href="#mda199a935f" x="568.487312" y="505.798814" style="fill: #1767a5; stroke: #1767a5"/>
     <use xlink:href="#mda199a935f" x="576.882664" y="497.837535" style="fill: #1767a5; stroke: #1767a5"/>
     <use xlink:href="#mda199a935f" x="585.254006" y="513.390303" style="fill: #1767a5; stroke: #1767a5"/>
     <use xlink:href="#mda199a935f" x="593.628899" y="512.151492" style="fill: #1767a5; stroke: #1767a5"/>
     <use xlink:href="#mda199a935f" x="602.00044" y="513.337713" style="fill: #1767a5; stroke: #1767a5"/>
     <use xlink:href="#mda199a935f" x="610.371688" y="512.12502" style="fill: #1767a5; stroke: #1767a5"/>
     <use xlink:href="#mda199a935f" x="618.742888" y="512.759625" style="fill: #1767a5; stroke: #1767a5"/>
     <use xlink:href="#mda199a935f" x="627.114437" y="510.495545" style="fill: #1767a5; stroke: #1767a5"/>
     <use xlink:href="#mda199a935f" x="635.485599" y="512.599157" style="fill: #1767a5; stroke: #1767a5"/>
     <use xlink:href="#mda199a935f" x="643.857167" y="512.053301" style="fill: #1767a5; stroke: #1767a5"/>
     <use xlink:href="#mda199a935f" x="652.228394" y="513.219466" style="fill: #1767a5; stroke: #1767a5"/>
     <use xlink:href="#mda199a935f" x="660.640053" y="511.773751" style="fill: #1767a5; stroke: #1767a5"/>
     <use xlink:href="#mda199a935f" x="669.010762" y="513.650672" style="fill: #1767a5; stroke: #1767a5"/>
     <use xlink:href="#mda199a935f" x="677.38191" y="513.786233" style="fill: #1767a5; stroke: #1767a5"/>
     <use xlink:href="#mda199a935f" x="685.753128" y="513.273167" style="fill: #1767a5; stroke: #1767a5"/>
     <use xlink:href="#mda199a935f" x="694.124371" y="512.66085" style="fill: #1767a5; stroke: #1767a5"/>
     <use xlink:href="#mda199a935f" x="702.495543" y="513.261648" style="fill: #1767a5; stroke: #1767a5"/>
     <use xlink:href="#mda199a935f" x="710.866413" y="512.687172" style="fill: #1767a5; stroke: #1767a5"/>
     <use xlink:href="#mda199a935f" x="719.237441" y="513.789445" style="fill: #1767a5; stroke: #1767a5"/>
     <use xlink:href="#mda199a935f" x="727.608627" y="508.920933" style="fill: #1767a5; stroke: #1767a5"/>
     <use xlink:href="#mda199a935f" x="735.980061" y="512.588512" style="fill: #1767a5; stroke: #1767a5"/>
     <use xlink:href="#mda199a935f" x="744.351268" y="508.932869" style="fill: #1767a5; stroke: #1767a5"/>
     <use xlink:href="#mda199a935f" x="752.723713" y="512.179346" style="fill: #1767a5; stroke: #1767a5"/>
     <use xlink:href="#mda199a935f" x="761.09965" y="512.108744" style="fill: #1767a5; stroke: #1767a5"/>
     <use xlink:href="#mda199a935f" x="769.470748" y="513.73974" style="fill: #1767a5; stroke: #1767a5"/>
    </g>
   </g>
   <g id="line2d_64">
    <path d="M 442.8 550.8 
L 442.8 379.630189 
" clip-path="url(#p71802d1087)" style="fill: none; stroke-dasharray: 1,1.65; stroke-dashoffset: 0; stroke: #99701b"/>
   </g>
   <g id="line2d_65">
    <path d="M 777.6 550.8 
L 777.6 379.630189 
" clip-path="url(#p71802d1087)" style="fill: none; stroke-dasharray: 0.8,1.32; stroke-dashoffset: 0; stroke: #777777; stroke-width: 0.8"/>
   </g>
   <g id="patch_9">
    <path d="M 108 550.8 
L 108 379.630189 
" style="fill: none; stroke: #000000; stroke-width: 0.8; stroke-linejoin: miter; stroke-linecap: square"/>
   </g>
   <g id="patch_10">
    <path d="M 108 550.8 
L 777.6 550.8 
" style="fill: none; stroke: #000000; stroke-width: 0.8; stroke-linejoin: miter; stroke-linecap: square"/>
   </g>
   <g id="text_37">
    <text style="font-size: 8px; font-family: 'DejaVu Sans'; text-anchor: start" x="108" y="601.382901" transform="rotate(-0 108 601.382901)">80/80 replies · p95 350 ms · max 454 ms</text>
   </g>
   <g id="text_38">
    <text style="font-size: 11px; font-family: 'DejaVu Sans'; text-anchor: start" x="108" y="368.630189" transform="rotate(-0 108 368.630189)">Echo during download · actual attempts</text>
   </g>
  </g>
  <g id="text_39">
   <text style="font-size: 16px; font-family: 'DejaVu Sans'; text-anchor: middle" x="432" y="28.3575" transform="rotate(-0 432 28.3575)">MPTUNNEL QUIC · service after loss clears</text>
  </g>
  <g id="text_40">
   <text style="font-size: 10px; font-family: 'DejaVu Sans'; text-anchor: middle" x="432" y="42.12" transform="rotate(-0 432 42.12)">500 Mbps · 70 ms DOWN / 30 ms UP · 20% DOWN loss until approximately 20 s · no UP loss</text>
  </g>
  <g id="text_41">
   <text style="font-size: 8px; font-family: 'DejaVu Sans'" transform="translate(248.8775 621.018125)">MPTUNNEL 0.4.9 · one 40 s observation · all raw one-second bins and actual echo attempts</text>
   <text style="font-size: 8px; font-family: 'DejaVu Sans'" transform="translate(144.7375 631.8)">Amber shows nominal loss duration; actual clear was at collector 20.197 s. Collector and probe clocks differ. Exact values: measurements.json.</text>
  </g>
 </g>
 <defs>
  <clipPath id="p9019f160bc">
   <rect x="108" y="97.2" width="669.6" height="171.169811"/>
  </clipPath>
  <clipPath id="p71802d1087">
   <rect x="108" y="379.630189" width="669.6" height="171.169811"/>
  </clipPath>
 </defs>
</svg>
