<svg xmlns="http://www.w3.org/2000/svg" width="1040" height="605" viewBox="0 0 1040 605" role="img" aria-labelledby="title desc">
<title id="title">QUIC recovery after packet reordering ends</title><desc id="desc">One current MPTUNNEL QUIC and one Hysteria2 run: 500 Mbps down, 100 Mbps up, 100 ms base RTT. Independent directional jitter is removed at about 8 seconds. No injected packet loss. MPTUNNEL bulk recovers more slowly and its independent echo request times out; subsequent echo points are unavailable. Single runs, not a release ranking.</desc>
<style>text{font-family:Arial,Helvetica,sans-serif;fill:#263442;font-size:13px}.grid{stroke:#dfe5ea;stroke-width:1}.axis{stroke:#526372;stroke-width:1}.muted{fill:#596a78}.title{font-size:21px;font-weight:700}.sub{font-size:12px} .series{fill:none;stroke-width:2.6;stroke-linejoin:round}</style>
<rect width="1040" height="605" fill="#fff"/>
<text x="76" y="30" class="title">Recovery after packet reordering ends</text>
<text x="76" y="52" class="muted">500 / 100 Mbps · 100 ms base RTT · no injected loss · jitter removed at ≈8 s</text>
<rect x="76" y="110" width="186.8" height="205" fill="#fff3dd"/><line class="grid" x1="76" x2="1010" y1="315" y2="315"/><text x="64" y="319" text-anchor="end">0</text><line class="grid" x1="76" x2="1010" y1="274" y2="274"/><text x="64" y="278" text-anchor="end">100</text><line class="grid" x1="76" x2="1010" y1="233" y2="233"/><text x="64" y="237" text-anchor="end">200</text><line class="grid" x1="76" x2="1010" y1="192" y2="192"/><text x="64" y="196" text-anchor="end">300</text><line class="grid" x1="76" x2="1010" y1="151" y2="151"/><text x="64" y="155" text-anchor="end">400</text><line class="grid" x1="76" x2="1010" y1="110" y2="110"/><text x="64" y="114" text-anchor="end">500</text><line class="grid" x1="76" x2="76" y1="110" y2="315"/><text x="76" y="336" text-anchor="middle">0</text><line class="grid" x1="192.75" x2="192.75" y1="110" y2="315"/><text x="192.75" y="336" text-anchor="middle">5</text><line class="grid" x1="309.5" x2="309.5" y1="110" y2="315"/><text x="309.5" y="336" text-anchor="middle">10</text><line class="grid" x1="426.25" x2="426.25" y1="110" y2="315"/><text x="426.25" y="336" text-anchor="middle">15</text><line class="grid" x1="543" x2="543" y1="110" y2="315"/><text x="543" y="336" text-anchor="middle">20</text><line class="grid" x1="659.75" x2="659.75" y1="110" y2="315"/><text x="659.75" y="336" text-anchor="middle">25</text><line class="grid" x1="776.5" x2="776.5" y1="110" y2="315"/><text x="776.5" y="336" text-anchor="middle">30</text><line class="grid" x1="893.25" x2="893.25" y1="110" y2="315"/><text x="893.25" y="336" text-anchor="middle">35</text><line class="grid" x1="1010" x2="1010" y1="110" y2="315"/><text x="1010" y="336" text-anchor="middle">40</text><text x="76" y="98">Receiver goodput (Mbps)</text><line x1="262.8" x2="262.8" y1="110" y2="315" stroke="#aa852e" stroke-dasharray="5 4"/><rect x="76" y="375" width="186.8" height="165" fill="#fff3dd"/><line class="grid" x1="76" x2="1010" y1="540" y2="540"/><text x="64" y="544" text-anchor="end">0</text><line class="grid" x1="76" x2="1010" y1="498.75" y2="498.75"/><text x="64" y="502.75" text-anchor="end">200</text><line class="grid" x1="76" x2="1010" y1="457.5" y2="457.5"/><text x="64" y="461.5" text-anchor="end">400</text><line class="grid" x1="76" x2="1010" y1="416.25" y2="416.25"/><text x="64" y="420.25" text-anchor="end">600</text><line class="grid" x1="76" x2="1010" y1="375" y2="375"/><text x="64" y="379" text-anchor="end">800</text><line class="grid" x1="76" x2="76" y1="375" y2="540"/><text x="76" y="561" text-anchor="middle">0</text><line class="grid" x1="192.75" x2="192.75" y1="375" y2="540"/><text x="192.75" y="561" text-anchor="middle">5</text><line class="grid" x1="309.5" x2="309.5" y1="375" y2="540"/><text x="309.5" y="561" text-anchor="middle">10</text><line class="grid" x1="426.25" x2="426.25" y1="375" y2="540"/><text x="426.25" y="561" text-anchor="middle">15</text><line class="grid" x1="543" x2="543" y1="375" y2="540"/><text x="543" y="561" text-anchor="middle">20</text><line class="grid" x1="659.75" x2="659.75" y1="375" y2="540"/><text x="659.75" y="561" text-anchor="middle">25</text><line class="grid" x1="776.5" x2="776.5" y1="375" y2="540"/><text x="776.5" y="561" text-anchor="middle">30</text><line class="grid" x1="893.25" x2="893.25" y1="375" y2="540"/><text x="893.25" y="561" text-anchor="middle">35</text><line class="grid" x1="1010" x2="1010" y1="375" y2="540"/><text x="1010" y="561" text-anchor="middle">40</text><text x="76" y="363">Concurrent echo latency (ms)</text><line x1="262.8" x2="262.8" y1="375" y2="540" stroke="#aa852e" stroke-dasharray="5 4"/><text x="99.35" y="128" class="sub">Jitter 70±20 / 30±5 ms</text><polyline class="series" stroke="#087eaa" points="87.67,313.78 111.03,314.69 134.38,314.09 157.72,315.00 181.07,314.82 204.43,314.79 227.78,314.82 251.13,314.84 274.48,314.43 297.82,312.42 321.18,304.56 344.52,274.59 367.88,237.22 391.23,210.92 414.57,204.69 437.93,165.37 461.27,124.00 484.63,131.18 507.98,134.39 531.33,156.91 554.67,135.03 578.02,132.09 601.38,129.49 624.73,131.44 648.08,129.76 671.42,133.82 694.77,130.50 718.13,155.19 741.48,136.19 764.83,132.48 788.17,125.37 811.52,127.04 834.88,135.96 858.23,156.05 881.58,134.72 904.92,131.26 928.27,132.60 951.63,131.63 974.98,133.37 998.33,129.65"/><circle cx="87.67" cy="313.78" r="2" fill="#087eaa"><title>MPP QUIC: 0–1 s, 2.981 Mbps receiver goodput</title></circle><circle cx="111.03" cy="314.69" r="2" fill="#087eaa"><title>MPP QUIC: 1–2 s, 0.76 Mbps receiver goodput</title></circle><circle cx="134.38" cy="314.09" r="2" fill="#087eaa"><title>MPP QUIC: 2–3 s, 2.216 Mbps receiver goodput</title></circle><circle cx="157.72" cy="315.00" r="2" fill="#087eaa"><title>MPP QUIC: 3–4 s, 0 Mbps receiver goodput</title></circle><circle cx="181.07" cy="314.82" r="2" fill="#087eaa"><title>MPP QUIC: 4–5 s, 0.428 Mbps receiver goodput</title></circle><circle cx="204.43" cy="314.79" r="2" fill="#087eaa"><title>MPP QUIC: 5–6 s, 0.524 Mbps receiver goodput</title></circle><circle cx="227.78" cy="314.82" r="2" fill="#087eaa"><title>MPP QUIC: 6–7 s, 0.428 Mbps receiver goodput</title></circle><circle cx="251.13" cy="314.84" r="2" fill="#087eaa"><title>MPP QUIC: 7–8 s, 0.384 Mbps receiver goodput</title></circle><circle cx="274.48" cy="314.43" r="2" fill="#087eaa"><title>MPP QUIC: 8–9 s, 1.402 Mbps receiver goodput</title></circle><circle cx="297.82" cy="312.42" r="2" fill="#087eaa"><title>MPP QUIC: 9–10 s, 6.291 Mbps receiver goodput</title></circle><circle cx="321.18" cy="304.56" r="2" fill="#087eaa"><title>MPP QUIC: 10–11 s, 25.454 Mbps receiver goodput</title></circle><circle cx="344.52" cy="274.59" r="2" fill="#087eaa"><title>MPP QUIC: 11–12 s, 98.566 Mbps receiver goodput</title></circle><circle cx="367.88" cy="237.22" r="2" fill="#087eaa"><title>MPP QUIC: 12–13 s, 189.696 Mbps receiver goodput</title></circle><circle cx="391.23" cy="210.92" r="2" fill="#087eaa"><title>MPP QUIC: 13–14 s, 253.851 Mbps receiver goodput</title></circle><circle cx="414.57" cy="204.69" r="2" fill="#087eaa"><title>MPP QUIC: 14–15 s, 269.048 Mbps receiver goodput</title></circle><circle cx="437.93" cy="165.37" r="2" fill="#087eaa"><title>MPP QUIC: 15–16 s, 364.956 Mbps receiver goodput</title></circle><circle cx="461.27" cy="124.00" r="2" fill="#087eaa"><title>MPP QUIC: 16–17 s, 465.863 Mbps receiver goodput</title></circle><circle cx="484.63" cy="131.18" r="2" fill="#087eaa"><title>MPP QUIC: 17–18 s, 448.344 Mbps receiver goodput</title></circle><circle cx="507.98" cy="134.39" r="2" fill="#087eaa"><title>MPP QUIC: 18–19 s, 440.509 Mbps receiver goodput</title></circle><circle cx="531.33" cy="156.91" r="2" fill="#087eaa"><title>MPP QUIC: 19–20 s, 385.581 Mbps receiver goodput</title></circle><circle cx="554.67" cy="135.03" r="2" fill="#087eaa"><title>MPP QUIC: 20–21 s, 438.946 Mbps receiver goodput</title></circle><circle cx="578.02" cy="132.09" r="2" fill="#087eaa"><title>MPP QUIC: 21–22 s, 446.119 Mbps receiver goodput</title></circle><circle cx="601.38" cy="129.49" r="2" fill="#087eaa"><title>MPP QUIC: 22–23 s, 452.457 Mbps receiver goodput</title></circle><circle cx="624.73" cy="131.44" r="2" fill="#087eaa"><title>MPP QUIC: 23–24 s, 447.699 Mbps receiver goodput</title></circle><circle cx="648.08" cy="129.76" r="2" fill="#087eaa"><title>MPP QUIC: 24–25 s, 451.808 Mbps receiver goodput</title></circle><circle cx="671.42" cy="133.82" r="2" fill="#087eaa"><title>MPP QUIC: 25–26 s, 441.899 Mbps receiver goodput</title></circle><circle cx="694.77" cy="130.50" r="2" fill="#087eaa"><title>MPP QUIC: 26–27 s, 449.994 Mbps receiver goodput</title></circle><circle cx="718.13" cy="155.19" r="2" fill="#087eaa"><title>MPP QUIC: 27–28 s, 389.782 Mbps receiver goodput</title></circle><circle cx="741.48" cy="136.19" r="2" fill="#087eaa"><title>MPP QUIC: 28–29 s, 436.124 Mbps receiver goodput</title></circle><circle cx="764.83" cy="132.48" r="2" fill="#087eaa"><title>MPP QUIC: 29–30 s, 445.168 Mbps receiver goodput</title></circle><circle cx="788.17" cy="125.37" r="2" fill="#087eaa"><title>MPP QUIC: 30–31 s, 462.518 Mbps receiver goodput</title></circle><circle cx="811.52" cy="127.04" r="2" fill="#087eaa"><title>MPP QUIC: 31–32 s, 458.433 Mbps receiver goodput</title></circle><circle cx="834.88" cy="135.96" r="2" fill="#087eaa"><title>MPP QUIC: 32–33 s, 436.673 Mbps receiver goodput</title></circle><circle cx="858.23" cy="156.05" r="2" fill="#087eaa"><title>MPP QUIC: 33–34 s, 387.679 Mbps receiver goodput</title></circle><circle cx="881.58" cy="134.72" r="2" fill="#087eaa"><title>MPP QUIC: 34–35 s, 439.7 Mbps receiver goodput</title></circle><circle cx="904.92" cy="131.26" r="2" fill="#087eaa"><title>MPP QUIC: 35–36 s, 448.149 Mbps receiver goodput</title></circle><circle cx="928.27" cy="132.60" r="2" fill="#087eaa"><title>MPP QUIC: 36–37 s, 444.867 Mbps receiver goodput</title></circle><circle cx="951.63" cy="131.63" r="2" fill="#087eaa"><title>MPP QUIC: 37–38 s, 447.255 Mbps receiver goodput</title></circle><circle cx="974.98" cy="133.37" r="2" fill="#087eaa"><title>MPP QUIC: 38–39 s, 442.992 Mbps receiver goodput</title></circle><circle cx="998.33" cy="129.65" r="2" fill="#087eaa"><title>MPP QUIC: 39–40 s, 452.073 Mbps receiver goodput</title></circle><polyline class="series" stroke="#087eaa" points="81.68,513.63 91.87,503.04 102.33,513.84 112.78,524.59"/><circle cx="81.68" cy="513.63" r="2.2" fill="#087eaa"><title>quic: echo 127.87 ms at 0.24 s</title></circle><circle cx="91.87" cy="503.04" r="2.2" fill="#087eaa"><title>quic: echo 179.22 ms at 0.68 s</title></circle><circle cx="102.33" cy="513.84" r="2.2" fill="#087eaa"><title>quic: echo 126.82 ms at 1.13 s</title></circle><circle cx="112.78" cy="524.59" r="2.2" fill="#087eaa"><title>quic: echo 74.70 ms at 1.58 s</title></circle><polyline class="series" stroke="#d57517" points="87.67,282.17 111.03,266.92 134.38,281.26 157.72,287.81 181.07,315.00 204.43,315.00 227.78,315.00 251.13,315.00 274.48,315.00 297.82,158.47 321.18,122.31 344.52,123.28 367.88,121.82 391.23,122.36 414.57,121.65 437.93,122.43 461.27,122.65 484.63,121.54 507.98,122.27 531.33,122.28 554.67,141.20 578.02,122.25 601.38,139.97 624.73,122.98 648.08,143.74 671.42,136.95 694.77,123.36 718.13,144.42 741.48,123.87 764.83,124.41 788.17,125.45 811.52,122.96 834.88,123.89 858.23,123.15 881.58,123.81 904.92,123.03 928.27,143.64 951.63,115.95 974.98,123.17 998.33,123.77"/><circle cx="87.67" cy="282.17" r="2" fill="#d57517"><title>Hysteria2: 0–1 s, 80.085 Mbps receiver goodput</title></circle><circle cx="111.03" cy="266.92" r="2" fill="#d57517"><title>Hysteria2: 1–2 s, 117.272 Mbps receiver goodput</title></circle><circle cx="134.38" cy="281.26" r="2" fill="#d57517"><title>Hysteria2: 2–3 s, 82.283 Mbps receiver goodput</title></circle><circle cx="157.72" cy="287.81" r="2" fill="#d57517"><title>Hysteria2: 3–4 s, 66.312 Mbps receiver goodput</title></circle><circle cx="181.07" cy="315.00" r="2" fill="#d57517"><title>Hysteria2: 4–5 s, 0 Mbps receiver goodput</title></circle><circle cx="204.43" cy="315.00" r="2" fill="#d57517"><title>Hysteria2: 5–6 s, 0 Mbps receiver goodput</title></circle><circle cx="227.78" cy="315.00" r="2" fill="#d57517"><title>Hysteria2: 6–7 s, 0 Mbps receiver goodput</title></circle><circle cx="251.13" cy="315.00" r="2" fill="#d57517"><title>Hysteria2: 7–8 s, 0 Mbps receiver goodput</title></circle><circle cx="274.48" cy="315.00" r="2" fill="#d57517"><title>Hysteria2: 8–9 s, 0 Mbps receiver goodput</title></circle><circle cx="297.82" cy="158.47" r="2" fill="#d57517"><title>Hysteria2: 9–10 s, 381.784 Mbps receiver goodput</title></circle><circle cx="321.18" cy="122.31" r="2" fill="#d57517"><title>Hysteria2: 10–11 s, 469.982 Mbps receiver goodput</title></circle><circle cx="344.52" cy="123.28" r="2" fill="#d57517"><title>Hysteria2: 11–12 s, 467.605 Mbps receiver goodput</title></circle><circle cx="367.88" cy="121.82" r="2" fill="#d57517"><title>Hysteria2: 12–13 s, 471.163 Mbps receiver goodput</title></circle><circle cx="391.23" cy="122.36" r="2" fill="#d57517"><title>Hysteria2: 13–14 s, 469.854 Mbps receiver goodput</title></circle><circle cx="414.57" cy="121.65" r="2" fill="#d57517"><title>Hysteria2: 14–15 s, 471.587 Mbps receiver goodput</title></circle><circle cx="437.93" cy="122.43" r="2" fill="#d57517"><title>Hysteria2: 15–16 s, 469.692 Mbps receiver goodput</title></circle><circle cx="461.27" cy="122.65" r="2" fill="#d57517"><title>Hysteria2: 16–17 s, 469.146 Mbps receiver goodput</title></circle><circle cx="484.63" cy="121.54" r="2" fill="#d57517"><title>Hysteria2: 17–18 s, 471.859 Mbps receiver goodput</title></circle><circle cx="507.98" cy="122.27" r="2" fill="#d57517"><title>Hysteria2: 18–19 s, 470.064 Mbps receiver goodput</title></circle><circle cx="531.33" cy="122.28" r="2" fill="#d57517"><title>Hysteria2: 19–20 s, 470.054 Mbps receiver goodput</title></circle><circle cx="554.67" cy="141.20" r="2" fill="#d57517"><title>Hysteria2: 20–21 s, 423.909 Mbps receiver goodput</title></circle><circle cx="578.02" cy="122.25" r="2" fill="#d57517"><title>Hysteria2: 21–22 s, 470.134 Mbps receiver goodput</title></circle><circle cx="601.38" cy="139.97" r="2" fill="#d57517"><title>Hysteria2: 22–23 s, 426.901 Mbps receiver goodput</title></circle><circle cx="624.73" cy="122.98" r="2" fill="#d57517"><title>Hysteria2: 23–24 s, 468.351 Mbps receiver goodput</title></circle><circle cx="648.08" cy="143.74" r="2" fill="#d57517"><title>Hysteria2: 24–25 s, 417.717 Mbps receiver goodput</title></circle><circle cx="671.42" cy="136.95" r="2" fill="#d57517"><title>Hysteria2: 25–26 s, 434.271 Mbps receiver goodput</title></circle><circle cx="694.77" cy="123.36" r="2" fill="#d57517"><title>Hysteria2: 26–27 s, 467.403 Mbps receiver goodput</title></circle><circle cx="718.13" cy="144.42" r="2" fill="#d57517"><title>Hysteria2: 27–28 s, 416.052 Mbps receiver goodput</title></circle><circle cx="741.48" cy="123.87" r="2" fill="#d57517"><title>Hysteria2: 28–29 s, 466.165 Mbps receiver goodput</title></circle><circle cx="764.83" cy="124.41" r="2" fill="#d57517"><title>Hysteria2: 29–30 s, 464.851 Mbps receiver goodput</title></circle><circle cx="788.17" cy="125.45" r="2" fill="#d57517"><title>Hysteria2: 30–31 s, 462.31 Mbps receiver goodput</title></circle><circle cx="811.52" cy="122.96" r="2" fill="#d57517"><title>Hysteria2: 31–32 s, 468.391 Mbps receiver goodput</title></circle><circle cx="834.88" cy="123.89" r="2" fill="#d57517"><title>Hysteria2: 32–33 s, 466.132 Mbps receiver goodput</title></circle><circle cx="858.23" cy="123.15" r="2" fill="#d57517"><title>Hysteria2: 33–34 s, 467.927 Mbps receiver goodput</title></circle><circle cx="881.58" cy="123.81" r="2" fill="#d57517"><title>Hysteria2: 34–35 s, 466.324 Mbps receiver goodput</title></circle><circle cx="904.92" cy="123.03" r="2" fill="#d57517"><title>Hysteria2: 35–36 s, 468.209 Mbps receiver goodput</title></circle><circle cx="928.27" cy="143.64" r="2" fill="#d57517"><title>Hysteria2: 36–37 s, 417.94 Mbps receiver goodput</title></circle><circle cx="951.63" cy="115.95" r="2" fill="#d57517"><title>Hysteria2: 37–38 s, 485.481 Mbps receiver goodput</title></circle><circle cx="974.98" cy="123.17" r="2" fill="#d57517"><title>Hysteria2: 38–39 s, 467.874 Mbps receiver goodput</title></circle><circle cx="998.33" cy="123.77" r="2" fill="#d57517"><title>Hysteria2: 39–40 s, 466.407 Mbps receiver goodput</title></circle><polyline class="series" stroke="#d57517" points="79.57,524.88 91.84,503.30 107.66,466.66 121.88,444.23 134.72,433.92 149.67,408.02 166.16,394.31 170.93,497.85 179.49,525.44 191.10,525.99 203.16,522.66 214.82,522.81 226.41,523.51 239.27,513.13 249.66,524.49 261.08,526.78 273.62,519.09 285.53,517.06 297.30,516.22 308.97,516.33 320.68,515.99 332.35,516.04 344.05,515.86 355.75,515.64 367.33,516.45 378.92,517.22 390.66,516.70 402.33,516.74 413.98,517.03 425.68,516.78 437.34,516.96 449.02,516.93 460.72,516.67 472.38,516.81 484.09,516.54 495.72,516.99 507.39,516.98 519.13,516.49 530.75,516.93 542.43,516.96 553.98,518.06 565.78,516.95 577.46,516.96 589.13,517.01 600.84,516.73 612.48,517.02 624.17,516.90 635.89,516.51 647.52,516.91 659.26,516.39 670.95,516.47 682.57,516.95 694.23,517.09 706.00,516.25 717.67,516.32 729.31,516.68 741.07,515.95 752.63,516.95 764.30,517.07 776.06,516.33 787.80,515.76 799.39,517.19 811.10,516.90 822.77,516.93 834.42,517.18 846.12,516.98 857.76,517.27 869.43,517.30 881.18,516.73 892.83,516.91 904.51,516.87 916.19,516.84 927.88,516.79 939.52,517.28 951.23,516.96 962.90,516.99 974.59,516.95 986.27,516.88 997.97,516.75 1009.63,516.84"/><circle cx="79.57" cy="524.88" r="2.2" fill="#d57517"><title>h2: echo 73.32 ms at 0.15 s</title></circle><circle cx="91.84" cy="503.30" r="2.2" fill="#d57517"><title>h2: echo 177.94 ms at 0.68 s</title></circle><circle cx="107.66" cy="466.66" r="2.2" fill="#d57517"><title>h2: echo 355.56 ms at 1.36 s</title></circle><circle cx="121.88" cy="444.23" r="2.2" fill="#d57517"><title>h2: echo 464.35 ms at 1.96 s</title></circle><circle cx="134.72" cy="433.92" r="2.2" fill="#d57517"><title>h2: echo 514.34 ms at 2.51 s</title></circle><circle cx="149.67" cy="408.02" r="2.2" fill="#d57517"><title>h2: echo 639.90 ms at 3.15 s</title></circle><circle cx="166.16" cy="394.31" r="2.2" fill="#d57517"><title>h2: echo 706.38 ms at 3.86 s</title></circle><circle cx="170.93" cy="497.85" r="2.2" fill="#d57517"><title>h2: echo 204.35 ms at 4.07 s</title></circle><circle cx="179.49" cy="525.44" r="2.2" fill="#d57517"><title>h2: echo 70.58 ms at 4.43 s</title></circle><circle cx="191.10" cy="525.99" r="2.2" fill="#d57517"><title>h2: echo 67.95 ms at 4.93 s</title></circle><circle cx="203.16" cy="522.66" r="2.2" fill="#d57517"><title>h2: echo 84.08 ms at 5.45 s</title></circle><circle cx="214.82" cy="522.81" r="2.2" fill="#d57517"><title>h2: echo 83.35 ms at 5.95 s</title></circle><circle cx="226.41" cy="523.51" r="2.2" fill="#d57517"><title>h2: echo 79.95 ms at 6.44 s</title></circle><circle cx="239.27" cy="513.13" r="2.2" fill="#d57517"><title>h2: echo 130.29 ms at 6.99 s</title></circle><circle cx="249.66" cy="524.49" r="2.2" fill="#d57517"><title>h2: echo 75.22 ms at 7.44 s</title></circle><circle cx="261.08" cy="526.78" r="2.2" fill="#d57517"><title>h2: echo 64.09 ms at 7.93 s</title></circle><circle cx="273.62" cy="519.09" r="2.2" fill="#d57517"><title>h2: echo 101.40 ms at 8.46 s</title></circle><circle cx="285.53" cy="517.06" r="2.2" fill="#d57517"><title>h2: echo 111.23 ms at 8.97 s</title></circle><circle cx="297.30" cy="516.22" r="2.2" fill="#d57517"><title>h2: echo 115.30 ms at 9.48 s</title></circle><circle cx="308.97" cy="516.33" r="2.2" fill="#d57517"><title>h2: echo 114.74 ms at 9.98 s</title></circle><circle cx="320.68" cy="515.99" r="2.2" fill="#d57517"><title>h2: echo 116.39 ms at 10.48 s</title></circle><circle cx="332.35" cy="516.04" r="2.2" fill="#d57517"><title>h2: echo 116.15 ms at 10.98 s</title></circle><circle cx="344.05" cy="515.86" r="2.2" fill="#d57517"><title>h2: echo 117.02 ms at 11.48 s</title></circle><circle cx="355.75" cy="515.64" r="2.2" fill="#d57517"><title>h2: echo 118.09 ms at 11.98 s</title></circle><circle cx="367.33" cy="516.45" r="2.2" fill="#d57517"><title>h2: echo 114.18 ms at 12.48 s</title></circle><circle cx="378.92" cy="517.22" r="2.2" fill="#d57517"><title>h2: echo 110.44 ms at 12.97 s</title></circle><circle cx="390.66" cy="516.70" r="2.2" fill="#d57517"><title>h2: echo 112.95 ms at 13.48 s</title></circle><circle cx="402.33" cy="516.74" r="2.2" fill="#d57517"><title>h2: echo 112.79 ms at 13.98 s</title></circle><circle cx="413.98" cy="517.03" r="2.2" fill="#d57517"><title>h2: echo 111.36 ms at 14.47 s</title></circle><circle cx="425.68" cy="516.78" r="2.2" fill="#d57517"><title>h2: echo 112.58 ms at 14.98 s</title></circle><circle cx="437.34" cy="516.96" r="2.2" fill="#d57517"><title>h2: echo 111.73 ms at 15.47 s</title></circle><circle cx="449.02" cy="516.93" r="2.2" fill="#d57517"><title>h2: echo 111.86 ms at 15.98 s</title></circle><circle cx="460.72" cy="516.67" r="2.2" fill="#d57517"><title>h2: echo 113.09 ms at 16.48 s</title></circle><circle cx="472.38" cy="516.81" r="2.2" fill="#d57517"><title>h2: echo 112.43 ms at 16.98 s</title></circle><circle cx="484.09" cy="516.54" r="2.2" fill="#d57517"><title>h2: echo 113.77 ms at 17.48 s</title></circle><circle cx="495.72" cy="516.99" r="2.2" fill="#d57517"><title>h2: echo 111.55 ms at 17.97 s</title></circle><circle cx="507.39" cy="516.98" r="2.2" fill="#d57517"><title>h2: echo 111.60 ms at 18.48 s</title></circle><circle cx="519.13" cy="516.49" r="2.2" fill="#d57517"><title>h2: echo 113.99 ms at 18.98 s</title></circle><circle cx="530.75" cy="516.93" r="2.2" fill="#d57517"><title>h2: echo 111.86 ms at 19.48 s</title></circle><circle cx="542.43" cy="516.96" r="2.2" fill="#d57517"><title>h2: echo 111.70 ms at 19.98 s</title></circle><circle cx="553.98" cy="518.06" r="2.2" fill="#d57517"><title>h2: echo 106.38 ms at 20.47 s</title></circle><circle cx="565.78" cy="516.95" r="2.2" fill="#d57517"><title>h2: echo 111.74 ms at 20.98 s</title></circle><circle cx="577.46" cy="516.96" r="2.2" fill="#d57517"><title>h2: echo 111.70 ms at 21.48 s</title></circle><circle cx="589.13" cy="517.01" r="2.2" fill="#d57517"><title>h2: echo 111.48 ms at 21.98 s</title></circle><circle cx="600.84" cy="516.73" r="2.2" fill="#d57517"><title>h2: echo 112.83 ms at 22.48 s</title></circle><circle cx="612.48" cy="517.02" r="2.2" fill="#d57517"><title>h2: echo 111.44 ms at 22.98 s</title></circle><circle cx="624.17" cy="516.90" r="2.2" fill="#d57517"><title>h2: echo 112.01 ms at 23.48 s</title></circle><circle cx="635.89" cy="516.51" r="2.2" fill="#d57517"><title>h2: echo 113.88 ms at 23.98 s</title></circle><circle cx="647.52" cy="516.91" r="2.2" fill="#d57517"><title>h2: echo 111.93 ms at 24.48 s</title></circle><circle cx="659.26" cy="516.39" r="2.2" fill="#d57517"><title>h2: echo 114.50 ms at 24.98 s</title></circle><circle cx="670.95" cy="516.47" r="2.2" fill="#d57517"><title>h2: echo 114.08 ms at 25.48 s</title></circle><circle cx="682.57" cy="516.95" r="2.2" fill="#d57517"><title>h2: echo 111.78 ms at 25.98 s</title></circle><circle cx="694.23" cy="517.09" r="2.2" fill="#d57517"><title>h2: echo 111.09 ms at 26.48 s</title></circle><circle cx="706.00" cy="516.25" r="2.2" fill="#d57517"><title>h2: echo 115.17 ms at 26.98 s</title></circle><circle cx="717.67" cy="516.32" r="2.2" fill="#d57517"><title>h2: echo 114.83 ms at 27.48 s</title></circle><circle cx="729.31" cy="516.68" r="2.2" fill="#d57517"><title>h2: echo 113.06 ms at 27.98 s</title></circle><circle cx="741.07" cy="515.95" r="2.2" fill="#d57517"><title>h2: echo 116.61 ms at 28.48 s</title></circle><circle cx="752.63" cy="516.95" r="2.2" fill="#d57517"><title>h2: echo 111.77 ms at 28.98 s</title></circle><circle cx="764.30" cy="517.07" r="2.2" fill="#d57517"><title>h2: echo 111.17 ms at 29.48 s</title></circle><circle cx="776.06" cy="516.33" r="2.2" fill="#d57517"><title>h2: echo 114.74 ms at 29.98 s</title></circle><circle cx="787.80" cy="515.76" r="2.2" fill="#d57517"><title>h2: echo 117.53 ms at 30.48 s</title></circle><circle cx="799.39" cy="517.19" r="2.2" fill="#d57517"><title>h2: echo 110.62 ms at 30.98 s</title></circle><circle cx="811.10" cy="516.90" r="2.2" fill="#d57517"><title>h2: echo 112.00 ms at 31.48 s</title></circle><circle cx="822.77" cy="516.93" r="2.2" fill="#d57517"><title>h2: echo 111.85 ms at 31.98 s</title></circle><circle cx="834.42" cy="517.18" r="2.2" fill="#d57517"><title>h2: echo 110.65 ms at 32.48 s</title></circle><circle cx="846.12" cy="516.98" r="2.2" fill="#d57517"><title>h2: echo 111.60 ms at 32.98 s</title></circle><circle cx="857.76" cy="517.27" r="2.2" fill="#d57517"><title>h2: echo 110.21 ms at 33.48 s</title></circle><circle cx="869.43" cy="517.30" r="2.2" fill="#d57517"><title>h2: echo 110.07 ms at 33.98 s</title></circle><circle cx="881.18" cy="516.73" r="2.2" fill="#d57517"><title>h2: echo 112.81 ms at 34.48 s</title></circle><circle cx="892.83" cy="516.91" r="2.2" fill="#d57517"><title>h2: echo 111.97 ms at 34.98 s</title></circle><circle cx="904.51" cy="516.87" r="2.2" fill="#d57517"><title>h2: echo 112.15 ms at 35.48 s</title></circle><circle cx="916.19" cy="516.84" r="2.2" fill="#d57517"><title>h2: echo 112.29 ms at 35.98 s</title></circle><circle cx="927.88" cy="516.79" r="2.2" fill="#d57517"><title>h2: echo 112.53 ms at 36.48 s</title></circle><circle cx="939.52" cy="517.28" r="2.2" fill="#d57517"><title>h2: echo 110.18 ms at 36.98 s</title></circle><circle cx="951.23" cy="516.96" r="2.2" fill="#d57517"><title>h2: echo 111.69 ms at 37.48 s</title></circle><circle cx="962.90" cy="516.99" r="2.2" fill="#d57517"><title>h2: echo 111.56 ms at 37.98 s</title></circle><circle cx="974.59" cy="516.95" r="2.2" fill="#d57517"><title>h2: echo 111.75 ms at 38.48 s</title></circle><circle cx="986.27" cy="516.88" r="2.2" fill="#d57517"><title>h2: echo 112.09 ms at 38.98 s</title></circle><circle cx="997.97" cy="516.75" r="2.2" fill="#d57517"><title>h2: echo 112.72 ms at 39.48 s</title></circle><circle cx="1009.63" cy="516.84" r="2.2" fill="#d57517"><title>h2: echo 112.29 ms at 39.98 s</title></circle><line x1="566" x2="598" y1="80" y2="80" stroke="#087eaa" stroke-width="3"/><text x="605" y="85">MPP QUIC · dynamic discovery</text><line x1="813" x2="845" y1="80" y2="80" stroke="#d57517" stroke-width="3"/><text x="852" y="85">H2 · rate configured</text>
<text x="192.75" y="400" fill="#9b3838">×</text><text x="216.1" y="400" class="sub">MPP echo: 3 s timeout; later samples unavailable</text>
<text x="543" y="582" text-anchor="middle">Elapsed time (seconds)</text>
<text x="76" y="601" class="sub muted">One run per product; no uncertainty band. Bulk uses the same connection throughout. All 80 H2 echoes completed.</text>
</svg>
